<?xml version="1.0" encoding="UTF-8"?>
<svg id="Layer_1" data-name="Layer 1" xmlns="http://www.w3.org/2000/svg" viewBox="0 0 16 16">
  <defs>
    <style>
      .cls-1 {
        fill: #fff;
      }
    </style>
  </defs>
  <g>
    <path class="cls-1" d="M12.29,11.08H3.72s0-.07,0-.1c.02-.75,.22-1.44,.62-2.07,.59-.92,1.42-1.51,2.47-1.8,.49-.14,.99-.18,1.5-.15,1.04,.07,1.96,.45,2.72,1.17,.65,.61,1.05,1.37,1.2,2.24,.03,.2,.04,.41,.06,.61,0,.03,0,.06,0,.1Z"/>
    <path class="cls-1" d="M3.74,6.42v-1.49c2.85,0,5.7,0,8.55,0,.02,.05,.02,1.33,0,1.49-.05,.02-8.45,.02-8.56,0Z"/>
  </g>
  <path d="M8,.12C3.65,.12,.12,3.65,.12,8s3.53,7.88,7.88,7.88,7.88-3.53,7.88-7.88S12.35,.12,8,.12Zm4.29,10.96H3.72s0-.07,0-.1c.02-.75,.22-1.44,.62-2.07,.59-.92,1.42-1.51,2.47-1.8,.49-.14,.99-.18,1.5-.15,1.04,.07,1.96,.45,2.72,1.17,.65,.61,1.05,1.37,1.2,2.24,.03,.2,.04,.41,.06,.61,0,.03,0,.06,0,.1Zm.01-4.67c-.05,.02-8.45,.02-8.56,0v-1.49H12.29c.02,.05,.02,1.33,0,1.49Z"/>
</svg>