<?xml version="1.0" encoding="UTF-8"?>
<svg id="Layer_1" data-name="Layer 1" xmlns="http://www.w3.org/2000/svg" viewBox="0 0 864 864">
  <defs>
    <style>
      .cls-1 {
        fill: #fff;
      }

      .cls-2 {
        fill: none;
        stroke: #fff;
        stroke-miterlimit: 10;
      }
    </style>
  </defs>
  <path class="cls-2" d="M663.7,562.05c-8.29-48.23-30.12-89.49-65.72-123.1-41.79-39.45-92-59.9-149.02-63.95-27.79-1.97-55.29,.54-82.19,8.01-57.44,15.97-103.29,48.12-135.5,98.66-22.06,34.61-32.92,72.75-33.87,113.74-.04,1.84,0,3.67,0,5.49h469.67c0-2.02,.14-3.75-.02-5.46-1.04-11.14-1.45-22.4-3.34-33.39Z"/>
  <path class="cls-2" d="M198.52,263.44v81.79c5.65,.91,466.51,.63,469.28-.23,.79-8.75,.41-78.63-.44-81.56H198.52Z"/>
  <g>
    <g>
      <path class="cls-1" d="M664.22,598.86H200.24c0-1.79-.04-3.61,0-5.42,.94-40.5,11.67-78.17,33.46-112.36,31.82-49.92,77.11-81.69,133.86-97.46,26.57-7.39,53.74-9.86,81.19-7.91,56.33,4,105.93,24.2,147.21,63.17,35.16,33.2,56.74,73.96,64.92,121.61,1.87,10.87,2.28,21.98,3.3,32.99,.16,1.69,.02,3.4,.02,5.4Z"/>
      <path class="cls-1" d="M201.35,346.28v-80.8c154.51,0,308.83,0,463.16,0,.84,2.89,1.21,71.93,.43,80.57-2.73,.85-458.01,1.13-463.59,.23Z"/>
    </g>
    <path d="M432,5.24C196.3,5.24,5.24,196.3,5.24,432s191.07,426.76,426.76,426.76,426.76-191.07,426.76-426.76S667.7,5.24,432,5.24Zm232.22,593.63H200.24c0-1.79-.04-3.61,0-5.42,.94-40.5,11.67-78.17,33.46-112.36,31.82-49.92,77.11-81.69,133.86-97.46,26.57-7.39,53.74-9.86,81.19-7.91,56.33,4,105.93,24.2,147.21,63.17,35.16,33.2,56.74,73.96,64.92,121.61,1.87,10.87,2.28,21.98,3.3,32.99,.16,1.69,.02,3.4,.02,5.4Zm.72-252.81c-2.73,.85-458.01,1.13-463.59,.23v-80.8h463.16c.84,2.9,1.21,71.93,.43,80.57Z"/>
  </g>
</svg>