<?xml version="1.0" encoding="UTF-8"?>
<svg id="Directory" xmlns="http://www.w3.org/2000/svg" xmlns:xlink="http://www.w3.org/1999/xlink" viewBox="0 0 160 160">
  <defs>
    <style>
      .cls-1 {
        fill: url(#linear-gradient-2);
      }

      .cls-1, .cls-2 {
        opacity: .2;
      }

      .cls-3 {
        fill: #fff;
      }

      .cls-4 {
        mask: url(#mask-2);
      }

      .cls-5 {
        fill: url(#radial-gradient-4);
      }

      .cls-6 {
        mask: url(#mask-3);
      }

      .cls-7 {
        fill: url(#radial-gradient);
      }

      .cls-8 {
        fill: #ff99d5;
        opacity: .1;
      }

      .cls-9 {
        fill: url(#radial-gradient-2);
      }

      .cls-10 {
        fill: url(#radial-gradient-3);
      }

      .cls-2 {
        fill: #10f;
      }

      .cls-11 {
        mask: url(#mask-1);
      }

      .cls-12 {
        mask: url(#mask);
      }

      .cls-13 {
        fill: url(#linear-gradient);
      }
    </style>
    <radialGradient id="radial-gradient" cx="773.99" cy="198.7" fx="773.99" fy="198.7" r="103.47" gradientTransform="translate(-541.52 -79.06) scale(.8)" gradientUnits="userSpaceOnUse">
      <stop offset="0" stop-color="#fff"/>
      <stop offset=".12" stop-color="#fbfbfb"/>
      <stop offset=".21" stop-color="#f1f1f1"/>
      <stop offset=".3" stop-color="#e0e0e0"/>
      <stop offset=".38" stop-color="#c9c9c9"/>
      <stop offset=".46" stop-color="#aaa"/>
      <stop offset=".54" stop-color="#848484"/>
      <stop offset=".61" stop-color="#575757"/>
      <stop offset=".68" stop-color="#242424"/>
      <stop offset=".73" stop-color="#000"/>
    </radialGradient>
    <mask id="mask" x="11.32" y="12.61" width="134.24" height="134.24" maskUnits="userSpaceOnUse">
      <rect id="bg" class="cls-7" x="11.32" y="12.61" width="134.24" height="134.24"/>
    </mask>
    <radialGradient id="radial-gradient-2" cx="121.86" cy="86.8" fx="121.86" fy="86.8" r="52.38" gradientTransform="translate(-41.56 -5.75) scale(.98)" gradientUnits="userSpaceOnUse">
      <stop offset=".71" stop-color="#fff"/>
      <stop offset="1" stop-color="#000"/>
    </radialGradient>
    <mask id="mask-1" x="26.86" y="28.15" width="103.16" height="103.16" maskUnits="userSpaceOnUse">
      <circle class="cls-9" cx="78.44" cy="79.74" r="51.58"/>
    </mask>
    <radialGradient id="radial-gradient-3" cx="773.99" cy="198.7" fx="773.99" fy="198.7" r="85.32" gradientTransform="translate(-541.52 -79.06) scale(.8)" gradientUnits="userSpaceOnUse">
      <stop offset=".41" stop-color="#000"/>
      <stop offset=".47" stop-color="#0f0f0f"/>
      <stop offset=".52" stop-color="#1d1d1d"/>
      <stop offset=".54" stop-color="#212121"/>
      <stop offset=".56" stop-color="#303030"/>
      <stop offset=".59" stop-color="#484848"/>
      <stop offset=".61" stop-color="#696969"/>
      <stop offset=".64" stop-color="#949494"/>
      <stop offset=".67" stop-color="#c8c8c8"/>
      <stop offset=".69" stop-color="#fff"/>
      <stop offset=".7" stop-color="#e0e0e0"/>
      <stop offset=".73" stop-color="#adadad"/>
      <stop offset=".75" stop-color="gray"/>
      <stop offset=".78" stop-color="#5c5c5c"/>
      <stop offset=".8" stop-color="#404040"/>
      <stop offset=".82" stop-color="#2c2c2c"/>
      <stop offset=".85" stop-color="#202020"/>
      <stop offset=".87" stop-color="#1d1d1d"/>
      <stop offset=".88" stop-color="#191919"/>
      <stop offset=".94" stop-color="#060606"/>
      <stop offset=".98" stop-color="#000"/>
    </radialGradient>
    <mask id="mask-2" x="11.32" y="12.61" width="134.24" height="134.24" maskUnits="userSpaceOnUse">
      <rect id="bg-3" data-name="bg" class="cls-10" x="11.32" y="12.61" width="134.24" height="134.24"/>
    </mask>
    <linearGradient id="linear-gradient" x1="11.32" y1="79.74" x2="145.56" y2="79.74" gradientUnits="userSpaceOnUse">
      <stop offset=".2" stop-color="#00e7ff"/>
      <stop offset=".26" stop-color="#00deff"/>
      <stop offset=".36" stop-color="#00c5ff"/>
      <stop offset=".49" stop-color="#009dff"/>
      <stop offset=".64" stop-color="#06f"/>
      <stop offset=".8" stop-color="#02f"/>
    </linearGradient>
    <radialGradient id="radial-gradient-4" cx="773.99" cy="198.7" fx="773.99" fy="198.7" r="103.47" gradientTransform="translate(-541.52 -79.06) scale(.8)" gradientUnits="userSpaceOnUse">
      <stop offset="0" stop-color="#fff"/>
      <stop offset=".13" stop-color="#fbfbfb"/>
      <stop offset=".23" stop-color="#f2f2f2"/>
      <stop offset=".32" stop-color="#e2e2e2"/>
      <stop offset=".41" stop-color="#cbcbcb"/>
      <stop offset=".48" stop-color="#adadad"/>
      <stop offset=".56" stop-color="#898989"/>
      <stop offset=".63" stop-color="#5e5e5e"/>
      <stop offset=".7" stop-color="#2e2e2e"/>
      <stop offset=".76" stop-color="#000"/>
    </radialGradient>
    <mask id="mask-3" x="11.32" y="12.61" width="134.24" height="134.24" maskUnits="userSpaceOnUse">
      <rect id="bg-5" data-name="bg" class="cls-5" x="11.32" y="12.61" width="134.24" height="134.24"/>
    </mask>
    <linearGradient id="linear-gradient-2" x1="11.32" y1="79.74" x2="145.56" y2="79.74" gradientUnits="userSpaceOnUse">
      <stop offset=".2" stop-color="#ae00ff"/>
      <stop offset=".27" stop-color="#a501ff"/>
      <stop offset=".38" stop-color="#8c06ff"/>
      <stop offset=".52" stop-color="#640eff"/>
      <stop offset=".68" stop-color="#2e18ff"/>
      <stop offset=".8" stop-color="#02f"/>
    </linearGradient>
  </defs>
  <g>
    <g>
      <g class="cls-12">
        <rect id="bg-2" data-name="bg" class="cls-2" x="11.32" y="12.61" width="134.24" height="134.24"/>
      </g>
      <g class="cls-11">
        <path class="cls-8" d="M126.92,97.4c-.1,.26-.2,.52-.3,.78H30.26c-.1-.26-.2-.52-.3-.78H126.92Zm-96.35,1.57c.11,.26,.21,.52,.32,.78H126c.11-.26,.22-.52,.32-.78H30.57Zm-1.14-3.14c.09,.26,.17,.52,.26,.79H127.2c.09-.26,.18-.52,.26-.79H29.43Zm-.49-1.57c.08,.26,.15,.52,.23,.79H127.72c.08-.26,.16-.52,.23-.79H28.94Zm2.29,6.28c.12,.26,.23,.52,.35,.79H125.3c.12-.26,.24-.52,.35-.79H31.23Zm-2.73-7.85c.07,.26,.14,.52,.21,.79h99.46c.07-.26,.14-.52,.21-.79H28.5Zm4.25,10.99c.14,.26,.28,.52,.42,.79H123.72c.14-.26,.28-.52,.42-.79H32.75Zm.86,1.57c.15,.26,.3,.52,.46,.79H122.82c.15-.26,.31-.52,.46-.79H33.61Zm-1.65-3.14c.13,.26,.26,.52,.39,.78H124.54c.13-.26,.26-.52,.39-.78H31.95Zm-4.84-17.27c.03,.26,.06,.52,.09,.79h102.49c.03-.26,.06-.52,.09-.79H27.11Zm-.13-1.57c.02,.26,.04,.52,.06,.79h102.8c.02-.26,.04-.52,.06-.79H26.98Zm-.08-1.57c0,.26,.02,.52,.03,.79h103.02c.01-.26,.02-.52,.03-.79H26.9Zm1.22,9.42c.06,.26,.12,.52,.18,.79h100.27c.06-.26,.13-.52,.18-.79H28.12Zm-.33-1.57c.05,.26,.1,.52,.16,.79h100.98c.05-.26,.11-.52,.16-.79H27.8Zm-.28-1.57c.04,.26,.08,.52,.13,.78h101.59c.05-.26,.09-.52,.13-.78H27.52Zm-.23-1.57c.03,.26,.07,.52,.11,.78h102.09c.04-.26,.08-.52,.11-.78H27.29Zm16.35,31.4c.29,.27,.58,.53,.88,.79H112.36c.3-.26,.59-.52,.88-.79H43.65Zm1.8,1.57c.32,.27,.64,.53,.97,.79H110.48c.33-.26,.65-.52,.97-.79H45.44Zm9.49,6.28c.53,.27,1.07,.53,1.61,.79h43.81c.54-.25,1.08-.51,1.61-.79H54.93Zm-5.31-3.14c.4,.27,.8,.53,1.2,.78h55.24c.4-.26,.81-.52,1.2-.78H49.62Zm-2.2-1.57c.35,.27,.71,.53,1.07,.79h59.9c.36-.26,.72-.52,1.07-.79H47.42Zm4.68,3.14c.45,.27,.91,.53,1.37,.78h49.95c.46-.25,.91-.52,1.37-.78H52.1Zm16.47,6.28c1.89,.37,3.81,.63,5.77,.79h8.2c1.96-.15,3.88-.42,5.77-.79h-19.74Zm-6.08-1.57c.88,.28,1.76,.55,2.66,.79h26.58c.9-.24,1.78-.5,2.66-.79h-31.9Zm-4.21-1.57c.65,.28,1.3,.54,1.97,.78h36.38c.66-.25,1.32-.51,1.97-.78H58.29Zm-16.29-10.99c.27,.26,.53,.53,.8,.79H114.08c.27-.26,.54-.52,.8-.79H42Zm-15.13-36.11c0,.26,0,.52,0,.79h103.13c0-.26,0-.52,.01-.79H26.87Zm8.68,28.26c.18,.26,.36,.52,.54,.79H120.8c.18-.26,.36-.52,.54-.79H35.55Zm2.27,3.14c.21,.26,.42,.53,.63,.78H118.43c.21-.26,.42-.52,.63-.78H37.82Zm-1.18-1.57c.19,.26,.38,.53,.58,.79H119.67c.2-.26,.39-.52,.58-.79H36.64Zm2.46,3.14c.22,.26,.45,.53,.68,.78H117.1c.23-.26,.46-.52,.68-.78H39.11Zm-4.57-6.28c.16,.26,.33,.53,.49,.79H121.86c.17-.26,.33-.52,.49-.79H34.54Zm5.96,7.85c.24,.26,.49,.53,.74,.79H115.65c.25-.26,.49-.52,.74-.79H40.5ZM65.15,29.89c-.9,.24-1.78,.5-2.66,.79h31.9c-.88-.28-1.76-.55-2.66-.79h-26.58Zm-23.92,14.13c-.25,.26-.49,.52-.74,.79H116.39c-.24-.26-.49-.53-.74-.79H41.23Zm-1.44,1.57c-.23,.26-.46,.52-.68,.79H117.78c-.22-.26-.45-.53-.68-.79H39.79Zm4.74-4.71c-.3,.26-.59,.52-.88,.79H113.24c-.29-.27-.58-.53-.88-.79H44.52Zm-10.46,12.56c-.15,.26-.31,.52-.46,.79H123.28c-.15-.26-.3-.52-.46-.79H34.06Zm8.74-10.99c-.27,.26-.54,.52-.8,.79H114.89c-.26-.26-.53-.53-.8-.79H42.8Zm-7.77,9.42c-.17,.26-.33,.52-.49,.78H122.35c-.16-.26-.33-.53-.49-.78H35.03Zm2.19-3.14c-.2,.26-.39,.52-.58,.79H120.24c-.19-.26-.38-.53-.58-.79H37.22Zm-1.14,1.57c-.18,.26-.36,.52-.54,.79H121.34c-.18-.26-.36-.52-.54-.79H36.09Zm2.37-3.14c-.21,.26-.42,.52-.63,.78H119.06c-.21-.26-.42-.52-.63-.78H38.45Zm18.09-14.13c-.54,.25-1.08,.51-1.61,.78h47.02c-.53-.27-1.07-.53-1.61-.78H56.54Zm3.72-1.57c-.66,.25-1.32,.51-1.97,.79h40.31c-.65-.28-1.3-.54-1.97-.79H60.25Zm14.09-3.14c-1.96,.15-3.88,.42-5.77,.79h19.74c-1.89-.37-3.81-.63-5.77-.79h-8.2Zm-25.85,9.42c-.36,.26-.72,.52-1.07,.78h62.04c-.35-.27-.71-.53-1.07-.78H48.49Zm-2.08,1.57c-.33,.26-.65,.52-.97,.79H111.44c-.32-.27-.64-.53-.97-.79H46.41Zm4.41-3.14c-.4,.26-.81,.52-1.2,.79h57.64c-.4-.27-.8-.53-1.2-.79H50.82Zm2.65-1.57c-.46,.25-.91,.52-1.37,.79h52.68c-.45-.27-.91-.53-1.37-.79H53.47Zm-22.58,25.12c-.11,.26-.22,.52-.32,.79H126.32c-.11-.26-.21-.52-.32-.79H30.89Zm-3.24,10.99c-.05,.26-.09,.52-.13,.79h101.85c-.04-.26-.08-.52-.13-.79H27.65Zm.66-3.14c-.06,.26-.13,.52-.18,.79h100.64c-.06-.26-.12-.52-.18-.79H28.31Zm-.91,4.71c-.04,.26-.08,.52-.11,.78h102.31c-.03-.26-.07-.52-.11-.78H27.4Zm.55-3.14c-.05,.26-.11,.52-.16,.79h101.29c-.05-.26-.1-.52-.16-.79H27.95Zm-1.02,7.85c-.01,.26-.02,.52-.03,.78h103.08c0-.26-.02-.52-.03-.78H26.93Zm.26-3.14c-.03,.26-.06,.52-.09,.78h102.66c-.03-.26-.06-.52-.09-.78H27.2Zm-.16,1.57c-.02,.26-.04,.52-.06,.79h102.92c-.02-.26-.04-.52-.06-.79H27.04Zm-.17,3.14c0,.26,0,.52,0,.79h103.15c0-.26,0-.52-.01-.79H26.88Zm6.29-23.55c-.14,.26-.28,.52-.42,.79H124.14c-.14-.26-.28-.53-.42-.79H33.17Zm-1.58,3.14c-.12,.26-.24,.52-.35,.79H125.65c-.12-.26-.23-.52-.35-.79H31.59Zm.76-1.57c-.13,.26-.26,.52-.39,.79H124.93c-.13-.26-.26-.52-.39-.79H32.34Zm-3.17,7.85c-.08,.26-.16,.52-.23,.79H127.95c-.08-.26-.15-.52-.23-.79H29.17Zm-.46,1.57c-.07,.26-.14,.52-.21,.79h99.88c-.07-.26-.14-.52-.21-.79H28.71Zm.97-3.14c-.09,.26-.18,.52-.26,.78H127.46c-.09-.26-.17-.52-.26-.78H29.69Zm.57-1.57c-.1,.26-.2,.52-.3,.78H126.92c-.1-.26-.2-.52-.3-.78H30.26Z"/>
      </g>
      <g class="cls-4">
        <rect id="bg-4" data-name="bg" class="cls-13" x="11.32" y="12.61" width="134.24" height="134.24"/>
      </g>
      <g class="cls-6">
        <rect id="bg-6" data-name="bg" class="cls-1" x="11.32" y="12.61" width="134.24" height="134.24"/>
      </g>
    </g>
    <path class="cls-3" d="M122.42,61.16c-2.4-5.68-5.85-10.79-10.23-15.17-4.38-4.38-9.49-7.82-15.17-10.23-5.88-2.49-12.14-3.75-18.58-3.75s-12.69,1.26-18.58,3.75c-5.68,2.4-10.79,5.85-15.17,10.23-4.38,4.38-7.82,9.49-10.23,15.17-2.49,5.88-3.75,12.14-3.75,18.58s1.26,12.69,3.75,18.58c2.4,5.68,5.85,10.79,10.23,15.17,4.38,4.38,9.49,7.82,15.17,10.23,5.88,2.49,12.14,3.75,18.58,3.75s12.69-1.26,18.58-3.75c5.68-2.4,10.79-5.85,15.17-10.23,4.38-4.38,7.82-9.49,10.23-15.17,2.49-5.88,3.75-12.14,3.75-18.58s-1.26-12.69-3.75-18.58Zm-43.98,64.82c-25.5,0-46.24-20.74-46.24-46.24s20.74-46.24,46.24-46.24,46.24,20.74,46.24,46.24-20.74,46.24-46.24,46.24Z"/>
  </g>
  <path class="cls-3" d="M107.53,78.62c-.41,0-.75,.33-.75,.75,0,14.7-11.25,26.82-25.59,28.2,1.44-1.07,3.36-2.72,5.29-5.08,1.42-1.74,2.95-4.03,4.27-6.89,1.77,.86,3.45,1.91,5.04,3.14,.32,.25,.79,.19,1.05-.13,.25-.33,.19-.79-.13-1.05-1.69-1.31-3.48-2.42-5.36-3.33,1.53-3.75,2.64-8.39,2.75-14.02,4.84-.4,7.55-.85,7.6-.85,.41-.07,.68-.45,.61-.86-.07-.41-.45-.68-.86-.61-.05,0-2.66,.44-7.35,.83-.08-5.72-1.21-10.42-2.75-14.21,1.81-.87,3.54-1.94,5.17-3.19,.33-.25,.39-.72,.14-1.05-.25-.33-.72-.39-1.05-.14-1.53,1.17-3.16,2.17-4.86,3-1.32-2.86-2.85-5.15-4.27-6.89-1.93-2.36-3.84-4.01-5.28-5.07,11.41,1.13,21.25,9.16,24.48,20.32,.11,.4,.53,.62,.92,.51,.4-.11,.62-.53,.51-.92-3.66-12.68-15.45-21.54-28.66-21.54-8.06,0-15.37,3.21-20.74,8.42,0,0,0,0-.01,0,0,0,0,0,0,0-5.59,5.42-9.07,13.01-9.07,21.39s3.48,15.97,9.07,21.39c0,0,0,0,0,0,0,0,0,0,.01,0,5.37,5.21,12.69,8.42,20.74,8.42,16.45,0,29.83-13.38,29.83-29.83,0-.41-.33-.75-.75-.75Zm-29.09,28.98c-1.44-.84-7.22-4.59-10.93-12.61,3.43-1.44,7.13-2.2,10.94-2.2s7.5,.75,10.93,2.19c-3.72,8.02-9.49,11.78-10.93,12.62Zm-2.75-.03c-6.28-.61-11.97-3.27-16.38-7.31,2.07-1.9,4.36-3.45,6.83-4.65,1.32,2.86,2.84,5.14,4.26,6.88,1.93,2.36,3.85,4.01,5.29,5.08Zm14.27-13.96c-3.61-1.52-7.5-2.31-11.52-2.31s-7.92,.8-11.53,2.32c-1.46-3.57-2.49-7.91-2.62-13.13,3.69,.21,8.17,.36,13.4,.36,5.97,0,11-.24,14.9-.53-.11,5.28-1.15,9.68-2.63,13.29Zm2.64-14.78c-3.87,.29-8.91,.53-14.91,.53-5.25,0-9.74-.16-13.42-.37,.05-5.55,1.11-10.14,2.64-13.89,3.61,1.52,7.51,2.32,11.52,2.32s7.92-.79,11.53-2.32c1.51,3.71,2.56,8.24,2.63,13.72Zm-3.22-15.08c-3.43,1.44-7.12,2.19-10.94,2.19s-7.5-.76-10.93-2.2c3.72-8.01,9.49-11.77,10.93-12.61,1.44,.84,7.22,4.59,10.94,12.61Zm-23.24-.62c-2.46-1.19-4.76-2.75-6.83-4.65,4.41-4.04,10.1-6.71,16.38-7.31-1.44,1.07-3.36,2.72-5.29,5.08-1.42,1.74-2.95,4.03-4.26,6.88Zm-16.04,16.24c0-7.72,3.11-14.73,8.14-19.85,2.21,2.04,4.67,3.71,7.31,4.98-1.56,3.83-2.7,8.61-2.76,14.42-6.68-.43-10.27-1.02-10.33-1.03-.41-.07-.79,.21-.86,.61-.07,.41,.21,.79,.61,.86,.06,0,3.75,.61,10.59,1.05,.13,5.55,1.23,10.13,2.75,13.83-2.64,1.27-5.1,2.94-7.31,4.98-5.03-5.12-8.14-12.13-8.14-19.85Zm54.44-1.49c.41,0,.75,.33,.75,.75s-.33,.75-.75,.75-.75-.33-.75-.75,.33-.75,.75-.75Z"/>
</svg>