<?xml version="1.0" encoding="UTF-8"?>
<svg id="Management" xmlns="http://www.w3.org/2000/svg" xmlns:xlink="http://www.w3.org/1999/xlink" viewBox="0 0 160 160">
  <defs>
    <style>
      .cls-1 {
        fill: url(#linear-gradient-2);
      }

      .cls-1, .cls-2 {
        opacity: .2;
      }

      .cls-3 {
        fill: #fff;
      }

      .cls-4 {
        mask: url(#mask-2);
      }

      .cls-5 {
        fill: url(#radial-gradient-4);
      }

      .cls-6 {
        mask: url(#mask-3);
      }

      .cls-7 {
        fill: url(#radial-gradient);
      }

      .cls-8 {
        fill: #ff99d5;
        opacity: .1;
      }

      .cls-9 {
        fill: url(#radial-gradient-2);
      }

      .cls-10 {
        fill: url(#radial-gradient-3);
      }

      .cls-2 {
        fill: #10f;
      }

      .cls-11 {
        mask: url(#mask-1);
      }

      .cls-12 {
        mask: url(#mask);
      }

      .cls-13 {
        fill: url(#linear-gradient);
      }
    </style>
    <radialGradient id="radial-gradient" cx="773.99" cy="198.7" fx="773.99" fy="198.7" r="105.87" gradientTransform="translate(-541.52 -79.06) scale(.8)" gradientUnits="userSpaceOnUse">
      <stop offset="0" stop-color="#fff"/>
      <stop offset=".12" stop-color="#fbfbfb"/>
      <stop offset=".21" stop-color="#f1f1f1"/>
      <stop offset=".3" stop-color="#e0e0e0"/>
      <stop offset=".38" stop-color="#c9c9c9"/>
      <stop offset=".46" stop-color="#aaa"/>
      <stop offset=".54" stop-color="#848484"/>
      <stop offset=".61" stop-color="#575757"/>
      <stop offset=".68" stop-color="#242424"/>
      <stop offset=".73" stop-color="#000"/>
    </radialGradient>
    <mask id="mask" x="9.77" y="11.06" width="137.35" height="137.35" maskUnits="userSpaceOnUse">
      <rect id="bg" class="cls-7" x="9.77" y="11.06" width="137.35" height="137.35"/>
    </mask>
    <radialGradient id="radial-gradient-2" cx="121.86" cy="86.8" fx="121.86" fy="86.8" r="53.59" gradientTransform="translate(54.03 -65.57) rotate(45) scale(.98)" gradientUnits="userSpaceOnUse">
      <stop offset=".71" stop-color="#fff"/>
      <stop offset="1" stop-color="#000"/>
    </radialGradient>
    <mask id="mask-1" x="25.67" y="26.96" width="105.56" height="105.56" maskUnits="userSpaceOnUse">
      <circle class="cls-9" cx="78.44" cy="79.74" r="52.78" transform="translate(-33.41 78.82) rotate(-45)"/>
    </mask>
    <radialGradient id="radial-gradient-3" cx="773.99" cy="198.7" fx="773.99" fy="198.7" r="87.3" gradientTransform="translate(-541.52 -79.06) scale(.8)" gradientUnits="userSpaceOnUse">
      <stop offset=".41" stop-color="#000"/>
      <stop offset=".47" stop-color="#0f0f0f"/>
      <stop offset=".52" stop-color="#1d1d1d"/>
      <stop offset=".54" stop-color="#212121"/>
      <stop offset=".56" stop-color="#303030"/>
      <stop offset=".59" stop-color="#484848"/>
      <stop offset=".61" stop-color="#696969"/>
      <stop offset=".64" stop-color="#949494"/>
      <stop offset=".67" stop-color="#c8c8c8"/>
      <stop offset=".69" stop-color="#fff"/>
      <stop offset=".7" stop-color="#e0e0e0"/>
      <stop offset=".73" stop-color="#adadad"/>
      <stop offset=".75" stop-color="gray"/>
      <stop offset=".78" stop-color="#5c5c5c"/>
      <stop offset=".8" stop-color="#404040"/>
      <stop offset=".82" stop-color="#2c2c2c"/>
      <stop offset=".85" stop-color="#202020"/>
      <stop offset=".87" stop-color="#1d1d1d"/>
      <stop offset=".88" stop-color="#191919"/>
      <stop offset=".94" stop-color="#060606"/>
      <stop offset=".98" stop-color="#000"/>
    </radialGradient>
    <mask id="mask-2" x="9.77" y="11.06" width="137.35" height="137.35" maskUnits="userSpaceOnUse">
      <rect id="bg-3" data-name="bg" class="cls-10" x="9.77" y="11.06" width="137.35" height="137.35"/>
    </mask>
    <linearGradient id="linear-gradient" x1="9.77" y1="79.74" x2="147.12" y2="79.74" gradientUnits="userSpaceOnUse">
      <stop offset=".2" stop-color="#00e7ff"/>
      <stop offset=".26" stop-color="#00deff"/>
      <stop offset=".36" stop-color="#00c5ff"/>
      <stop offset=".49" stop-color="#009dff"/>
      <stop offset=".64" stop-color="#06f"/>
      <stop offset=".8" stop-color="#02f"/>
    </linearGradient>
    <radialGradient id="radial-gradient-4" cx="773.99" cy="198.7" fx="773.99" fy="198.7" r="105.87" gradientTransform="translate(-541.52 -79.06) scale(.8)" gradientUnits="userSpaceOnUse">
      <stop offset="0" stop-color="#fff"/>
      <stop offset=".13" stop-color="#fbfbfb"/>
      <stop offset=".23" stop-color="#f2f2f2"/>
      <stop offset=".32" stop-color="#e2e2e2"/>
      <stop offset=".41" stop-color="#cbcbcb"/>
      <stop offset=".48" stop-color="#adadad"/>
      <stop offset=".56" stop-color="#898989"/>
      <stop offset=".63" stop-color="#5e5e5e"/>
      <stop offset=".7" stop-color="#2e2e2e"/>
      <stop offset=".76" stop-color="#000"/>
    </radialGradient>
    <mask id="mask-3" x="9.77" y="11.06" width="137.35" height="137.35" maskUnits="userSpaceOnUse">
      <rect id="bg-5" data-name="bg" class="cls-5" x="9.77" y="11.06" width="137.35" height="137.35"/>
    </mask>
    <linearGradient id="linear-gradient-2" x1="9.77" y1="79.74" x2="147.12" y2="79.74" gradientUnits="userSpaceOnUse">
      <stop offset=".2" stop-color="#ae00ff"/>
      <stop offset=".27" stop-color="#a501ff"/>
      <stop offset=".38" stop-color="#8c06ff"/>
      <stop offset=".52" stop-color="#640eff"/>
      <stop offset=".68" stop-color="#2e18ff"/>
      <stop offset=".8" stop-color="#02f"/>
    </linearGradient>
  </defs>
  <g>
    <g>
      <g class="cls-12">
        <rect id="bg-2" data-name="bg" class="cls-2" x="9.77" y="11.06" width="137.35" height="137.35"/>
      </g>
      <g class="cls-11">
        <path class="cls-8" d="M128.05,97.81c-.1,.27-.2,.54-.3,.8H29.15c-.1-.27-.21-.53-.3-.8h99.2Zm-98.59,1.61c.11,.27,.22,.54,.33,.8H127.1c.11-.27,.22-.53,.33-.8H29.46Zm-1.17-3.21c.09,.27,.18,.54,.27,.8h99.77c.09-.27,.18-.53,.27-.8H28.29Zm-.5-1.61c.08,.27,.16,.54,.24,.8h100.83c.08-.27,.16-.54,.24-.8H27.79Zm2.35,6.43c.12,.27,.24,.54,.36,.8H126.39c.12-.27,.24-.53,.36-.8H30.14Zm-2.79-8.03c.07,.27,.14,.54,.22,.8h101.76c.07-.27,.15-.53,.22-.8H27.34Zm4.34,11.25c.14,.27,.28,.54,.43,.8H124.77c.15-.27,.29-.53,.43-.8H31.69Zm.88,1.61c.15,.27,.31,.54,.47,.8H123.85c.16-.27,.32-.53,.47-.8H32.57Zm-1.69-3.21c.13,.27,.26,.54,.4,.8H125.61c.13-.27,.27-.53,.4-.8H30.88Zm-4.95-17.67c.03,.27,.06,.54,.09,.8h104.87c.03-.27,.06-.53,.09-.8H25.92Zm-.13-1.61c.02,.27,.04,.54,.06,.8h105.19c.02-.27,.04-.53,.06-.8H25.79Zm-.08-1.61c.01,.27,.02,.54,.03,.8h105.41c.01-.27,.02-.54,.03-.8H25.71Zm1.25,9.64c.06,.27,.12,.54,.19,.8h102.59c.06-.27,.13-.53,.19-.8H26.96Zm-.33-1.61c.05,.27,.1,.54,.16,.8h103.32c.06-.27,.11-.54,.16-.8H26.62Zm-.28-1.61c.04,.27,.09,.54,.13,.8h103.94c.05-.27,.09-.54,.13-.8H26.34Zm-.23-1.61c.03,.27,.07,.54,.11,.8h104.45c.04-.27,.08-.53,.11-.8H26.1Zm16.73,32.13c.3,.27,.6,.54,.9,.8H113.15c.3-.26,.6-.53,.9-.8H42.84Zm1.84,1.61c.33,.27,.66,.54,.99,.8H111.22c.33-.26,.66-.53,.99-.8H44.68Zm9.71,6.43c.54,.28,1.09,.54,1.64,.8h44.82c.55-.26,1.1-.53,1.64-.8H54.39Zm-5.44-3.21c.41,.27,.82,.54,1.23,.8h56.52c.41-.26,.82-.53,1.23-.8H48.95Zm-2.25-1.61c.36,.27,.73,.54,1.09,.8h61.29c.37-.26,.73-.53,1.09-.8H46.71Zm4.79,3.21c.46,.27,.93,.54,1.4,.8h51.11c.47-.26,.94-.53,1.4-.8H51.49Zm16.85,6.43c1.93,.37,3.9,.65,5.9,.8h8.39c2-.16,3.97-.43,5.9-.8h-20.2Zm-6.22-1.61c.9,.29,1.8,.56,2.72,.8h27.2c.92-.24,1.82-.51,2.72-.8H62.12Zm-4.3-1.61c.66,.28,1.34,.55,2.01,.8h37.22c.68-.26,1.35-.52,2.01-.8H57.82Zm-16.67-11.25c.27,.27,.55,.54,.82,.8H114.91c.28-.26,.55-.53,.82-.8H41.16Zm-15.48-36.95c0,.27,0,.54,.01,.8h105.53c0-.27,0-.54,.01-.8H25.67Zm8.88,28.92c.18,.27,.36,.54,.55,.8H121.78c.19-.27,.37-.53,.55-.8H34.55Zm2.33,3.21c.21,.27,.43,.54,.64,.8H119.36c.22-.27,.43-.53,.64-.8H36.88Zm-1.21-1.61c.2,.27,.39,.54,.59,.8H120.62c.2-.27,.4-.53,.59-.8H35.67Zm2.52,3.21c.23,.27,.46,.54,.7,.8H118c.23-.27,.47-.53,.7-.8H38.2Zm-4.67-6.43c.17,.27,.33,.54,.5,.8H122.86c.17-.27,.34-.53,.5-.8H33.52Zm6.09,8.03c.25,.27,.5,.54,.75,.8H116.52c.25-.26,.5-.53,.75-.8H39.62ZM64.84,28.73c-.92,.24-1.82,.51-2.72,.8h32.64c-.9-.29-1.8-.56-2.72-.8h-27.2Zm-24.47,14.46c-.25,.26-.5,.53-.75,.8H117.27c-.25-.27-.5-.54-.75-.8H40.37Zm-1.48,1.61c-.23,.27-.47,.53-.7,.8H118.69c-.23-.27-.46-.54-.7-.8H38.89Zm4.85-4.82c-.3,.26-.6,.53-.9,.8H114.05c-.3-.27-.6-.54-.9-.8H43.74Zm-10.7,12.85c-.16,.27-.32,.53-.47,.8H124.32c-.15-.27-.31-.54-.47-.8H33.03Zm8.94-11.25c-.28,.26-.55,.53-.82,.8H115.73c-.27-.27-.55-.54-.82-.8H41.98Zm-7.95,9.64c-.17,.27-.34,.53-.5,.8H123.37c-.17-.27-.33-.54-.5-.8H34.02Zm2.24-3.21c-.2,.27-.4,.53-.59,.8H121.21c-.2-.27-.39-.54-.59-.8H36.27Zm-1.16,1.61c-.19,.27-.37,.53-.55,.8H122.33c-.18-.27-.36-.54-.55-.8H35.1Zm2.42-3.21c-.22,.27-.43,.53-.64,.8H120.01c-.21-.27-.43-.54-.64-.8H37.53Zm18.51-14.46c-.55,.26-1.1,.53-1.64,.8h48.11c-.54-.28-1.09-.54-1.64-.8H56.03Zm3.8-1.61c-.68,.26-1.35,.52-2.01,.8h41.25c-.66-.28-1.33-.55-2.01-.8H59.83Zm14.41-3.21c-2,.16-3.97,.43-5.9,.8h20.2c-1.93-.37-3.9-.65-5.9-.8h-8.39Zm-26.45,9.64c-.37,.26-.73,.53-1.09,.8h63.48c-.36-.27-.73-.54-1.09-.8H47.8Zm-2.13,1.61c-.33,.26-.66,.53-.99,.8H112.21c-.33-.27-.66-.54-.99-.8H45.67Zm4.52-3.21c-.41,.26-.82,.53-1.23,.8h58.98c-.41-.27-.82-.54-1.23-.8H50.18Zm2.71-1.61c-.47,.26-.94,.53-1.4,.8h53.9c-.46-.27-.93-.54-1.4-.8H52.89Zm-23.1,25.7c-.11,.27-.22,.53-.33,.8H127.43c-.11-.27-.22-.54-.33-.8H29.79Zm-3.32,11.25c-.05,.27-.09,.54-.13,.8h104.21c-.04-.27-.09-.54-.13-.8H26.47Zm.67-3.21c-.06,.27-.13,.53-.19,.8h102.97c-.06-.27-.12-.54-.19-.8H27.15Zm-.93,4.82c-.04,.27-.08,.53-.11,.8h104.68c-.03-.27-.07-.54-.11-.8H26.22Zm.57-3.21c-.06,.27-.11,.53-.16,.8h103.64c-.05-.27-.1-.54-.16-.8H26.78Zm-1.04,8.03c-.01,.27-.02,.54-.03,.8h105.47c-.01-.27-.02-.54-.03-.8H25.74Zm.27-3.21c-.03,.27-.06,.53-.09,.8h105.04c-.03-.27-.06-.54-.09-.8H26.01Zm-.16,1.61c-.02,.27-.04,.54-.06,.8h105.31c-.02-.27-.04-.54-.06-.8H25.85Zm-.17,3.21c0,.27,0,.54-.01,.8h105.55c0-.27,0-.54-.01-.8H25.68Zm6.44-24.1c-.15,.27-.29,.53-.43,.8H125.2c-.14-.27-.28-.54-.43-.8H32.12Zm-1.62,3.21c-.12,.27-.24,.53-.36,.8H126.75c-.12-.27-.24-.54-.36-.8H30.5Zm.77-1.61c-.13,.27-.27,.53-.4,.8H126.01c-.13-.27-.26-.54-.4-.8H31.27Zm-3.25,8.03c-.08,.27-.16,.54-.24,.8h101.31c-.08-.27-.16-.54-.24-.8H28.03Zm-.47,1.61c-.07,.27-.15,.53-.22,.8h102.2c-.07-.27-.14-.54-.22-.8H27.56Zm1-3.21c-.09,.27-.18,.53-.27,.8h100.31c-.09-.27-.18-.54-.27-.8H28.56Zm.59-1.61c-.1,.27-.21,.53-.3,.8h99.2c-.1-.27-.2-.54-.3-.8H29.15Z"/>
      </g>
      <g class="cls-4">
        <rect id="bg-4" data-name="bg" class="cls-13" x="9.77" y="11.06" width="137.35" height="137.35"/>
      </g>
      <g class="cls-6">
        <rect id="bg-6" data-name="bg" class="cls-1" x="9.77" y="11.06" width="137.35" height="137.35"/>
      </g>
    </g>
    <path class="cls-3" d="M123.44,60.73c-2.46-5.82-5.98-11.04-10.47-15.52-4.48-4.48-9.71-8.01-15.52-10.47-6.02-2.55-12.42-3.84-19.01-3.84s-12.99,1.29-19.01,3.84c-5.82,2.46-11.04,5.98-15.52,10.47-4.48,4.48-8.01,9.71-10.47,15.52-2.55,6.02-3.84,12.42-3.84,19.01s1.29,12.99,3.84,19.01c2.46,5.82,5.98,11.04,10.47,15.52,4.48,4.48,9.71,8.01,15.52,10.47,6.02,2.55,12.42,3.84,19.01,3.84s12.99-1.29,19.01-3.84c5.82-2.46,11.04-5.98,15.52-10.47,4.48-4.48,8.01-9.71,10.47-15.52,2.55-6.02,3.84-12.42,3.84-19.01s-1.29-12.99-3.84-19.01Zm-45,66.32c-26.09,0-47.31-21.22-47.31-47.31s21.22-47.31,47.31-47.31,47.31,21.22,47.31,47.31-21.22,47.31-47.31,47.31Z"/>
  </g>
  <path class="cls-3" d="M115.07,78.97c0,1.26-.07,2.53-.19,3.79l-.04,.39-.34,.19c-1.27,.72-2.76,1.39-4.2,2.04-1.45,.65-2.94,1.33-4.13,2.03-.56,1.85-1.3,3.62-2.19,5.28,.35,1.4,.95,3.01,1.53,4.57,.53,1.41,1.07,2.86,1.45,4.19l.11,.38-.25,.31c-1.55,1.9-3.3,3.65-5.21,5.2l-.31,.25-.38-.11c-1.33-.37-2.78-.92-4.19-1.45-1.56-.59-3.16-1.18-4.57-1.53-1.66,.89-3.43,1.63-5.28,2.19-.7,1.19-1.37,2.68-2.03,4.13-.65,1.44-1.32,2.93-2.04,4.2l-.19,.34-.39,.04c-1.26,.13-2.53,.19-3.79,.19s-2.53-.07-3.79-.19l-.39-.04-.19-.34c-.72-1.27-1.39-2.76-2.04-4.2-.65-1.45-1.33-2.94-2.03-4.13-1.85-.56-3.62-1.3-5.28-2.19-1.4,.35-3.01,.95-4.57,1.53-1.41,.53-2.86,1.07-4.19,1.45l-.38,.11-.31-.25c-1.9-1.55-3.65-3.3-5.2-5.21l-.25-.31,.11-.38c.37-1.33,.92-2.78,1.45-4.19,.59-1.56,1.18-3.16,1.53-4.57-.89-1.66-1.62-3.43-2.19-5.28-1.19-.7-2.68-1.37-4.13-2.03-1.44-.65-2.93-1.32-4.2-2.04l-.34-.19-.04-.39c-.13-1.26-.19-2.53-.19-3.79s.07-2.53,.19-3.79l.04-.39,.34-.19c1.27-.72,2.76-1.39,4.2-2.04,1.45-.65,2.94-1.33,4.13-2.03,.56-1.85,1.3-3.62,2.19-5.28-.35-1.4-.95-3.01-1.53-4.57-.53-1.41-1.07-2.86-1.45-4.19l-.11-.38,.25-.31c1.55-1.9,3.3-3.65,5.21-5.2l.31-.25,.38,.11c1.33,.37,2.78,.92,4.19,1.45,1.56,.59,3.16,1.18,4.57,1.53,1.66-.89,3.43-1.63,5.28-2.19,.7-1.19,1.37-2.68,2.03-4.13,.65-1.44,1.32-2.93,2.04-4.2l.19-.34,.39-.04c2.51-.26,5.06-.26,7.57,0l.39,.04,.19,.34c.72,1.27,1.39,2.76,2.04,4.2,.65,1.45,1.33,2.94,2.03,4.13,1.85,.56,3.62,1.3,5.28,2.19,1.4-.35,3.01-.95,4.57-1.53,1.41-.53,2.86-1.07,4.19-1.45l.38-.11,.31,.25c1.9,1.55,3.65,3.3,5.21,5.21l.25,.31-.11,.38c-.37,1.33-.92,2.78-1.45,4.19-.59,1.56-1.18,3.16-1.53,4.57,.94,1.75,1.71,3.62,2.29,5.58,.12,.4-.11,.83-.52,.95-.07,.02-.14,.03-.21,.03-.33,0-.63-.22-.73-.55-.57-1.96-1.35-3.83-2.3-5.55-.02-.03-.02-.07-.03-.1-.02-.05-.04-.1-.05-.16,0-.06,0-.11,0-.17,0-.04,0-.07,0-.11,0-.01,0-.02,0-.04,0,0,0,0,0,0,.36-1.55,1.02-3.29,1.65-4.98,.47-1.24,.94-2.52,1.29-3.68-1.34-1.6-2.83-3.09-4.43-4.43-1.17,.35-2.44,.83-3.68,1.29-1.69,.63-3.44,1.29-4.99,1.65,0,0,0,0,0,0,0,0-.01,0-.02,0,0,0-.02,0-.03,0-.05,0-.1,.02-.15,.02-.03,0-.07,0-.1-.01-.02,0-.03,0-.05,0-.08-.01-.15-.04-.22-.08-1.73-.96-3.6-1.73-5.55-2.3,0,0-.01,0-.02-.01-.08-.03-.15-.06-.21-.11-.02-.01-.03-.02-.05-.03-.06-.05-.11-.11-.16-.18,0,0-.01-.02-.02-.03h0c-.79-1.3-1.52-2.93-2.23-4.51-.57-1.28-1.17-2.59-1.78-3.72-2.15-.2-4.32-.2-6.47,0-.62,1.13-1.21,2.45-1.78,3.72-.71,1.58-1.44,3.21-2.23,4.51h0s-.01,.02-.02,.03c-.02,.03-.05,.05-.07,.08-.04,.04-.07,.09-.12,.12-.04,.03-.1,.05-.15,.08-.03,.02-.06,.04-.1,.05-1.96,.57-3.83,1.35-5.55,2.3-.07,.04-.14,.06-.22,.08-.02,0-.03,0-.05,0-.03,0-.06,.01-.1,.01-.05,0-.1,0-.15-.02,0,0-.02,0-.03,0,0,0-.01,0-.02,0,0,0,0,0,0,0-1.55-.36-3.3-1.02-4.99-1.65-1.24-.47-2.52-.94-3.68-1.29-1.6,1.34-3.09,2.83-4.43,4.43,.35,1.17,.83,2.44,1.29,3.68,.63,1.69,1.29,3.43,1.65,4.98,0,0,0,0,0,0,0,.01,0,.03,.01,.04,0,.04,0,.07,0,.11,0,.06,.01,.11,0,.17,0,.06-.03,.11-.05,.16-.01,.04-.01,.07-.03,.11-.96,1.73-1.73,3.6-2.3,5.55-.02,.08-.06,.16-.11,.23,0,0-.01,.01-.02,.02-.05,.07-.12,.13-.19,.17,0,0-.01,.01-.02,.02-1.3,.79-2.95,1.53-4.54,2.25-1.28,.57-2.59,1.17-3.72,1.78-.1,1.08-.15,2.16-.15,3.24s.05,2.16,.15,3.24c1.13,.62,2.45,1.21,3.72,1.78,1.58,.71,3.21,1.45,4.51,2.23,0,0,0,0,0,0,0,0,.02,.01,.03,.02,.03,.02,.05,.05,.08,.08,.04,.04,.09,.07,.12,.11,.03,.05,.05,.1,.08,.15,.02,.03,.04,.06,.05,.1,.57,1.96,1.35,3.83,2.3,5.55,.02,.03,.02,.07,.03,.11,.02,.05,.04,.1,.05,.16,0,.06,0,.11,0,.17,0,.04,0,.07,0,.11,0,.01,0,.02,0,.04,0,0,0,0,0,0-.36,1.55-1.02,3.29-1.65,4.98-.47,1.24-.94,2.52-1.29,3.68,1.34,1.6,2.83,3.09,4.43,4.43,1.17-.35,2.45-.83,3.68-1.3,1.69-.63,3.43-1.29,4.98-1.65,0,0,0,0,0,0,.01,0,.03,0,.04-.01,.04,0,.08,0,.11,0,.05,0,.11-.01,.16,0,.06,0,.11,.03,.16,.05,.03,.01,.07,.01,.11,.03,1.73,.96,3.6,1.73,5.55,2.3,.04,.01,.06,.04,.1,.05,.05,.02,.1,.04,.15,.08,.05,.03,.08,.08,.11,.12,.02,.03,.06,.05,.08,.08,0,0,.01,.02,.02,.03,0,0,0,0,0,0,.79,1.3,1.52,2.93,2.23,4.51,.57,1.28,1.17,2.59,1.78,3.72,2.15,.2,4.32,.2,6.47,0,.62-1.13,1.21-2.45,1.78-3.72,.71-1.58,1.44-3.21,2.23-4.51,0,0,0,0,0,0,0,0,.01-.02,.02-.03,.02-.03,.05-.05,.08-.08,.04-.04,.07-.09,.11-.12,.05-.04,.1-.06,.15-.08,.03-.02,.06-.04,.09-.05,1.96-.57,3.83-1.35,5.55-2.3,.04-.02,.07-.02,.11-.03,.05-.02,.1-.04,.15-.05,.06,0,.11,0,.17,0,.04,0,.07,0,.11,0,.01,0,.03,0,.04,.01,0,0,0,0,0,0,1.55,.36,3.29,1.02,4.98,1.65,1.24,.47,2.52,.94,3.68,1.29,1.6-1.34,3.09-2.83,4.43-4.43-.35-1.17-.83-2.44-1.29-3.68-.63-1.69-1.29-3.43-1.65-4.98,0,0,0,0,0,0,0-.01,0-.02,0-.04,0-.04,0-.07,0-.11,0-.06-.01-.11,0-.17,0-.06,.03-.1,.05-.16,.01-.04,.02-.07,.03-.11,.96-1.73,1.73-3.6,2.3-5.55,.01-.04,.04-.07,.05-.1,.02-.05,.04-.1,.08-.15,.03-.04,.08-.08,.12-.11,.03-.03,.05-.06,.08-.08,1.3-.79,2.95-1.53,4.54-2.25,1.28-.57,2.59-1.17,3.72-1.78,.1-1.08,.15-2.16,.15-3.24,0-1.2-.06-2.43-.19-3.63-.04-.42,.26-.79,.68-.84,.42-.04,.79,.26,.84,.68,.13,1.26,.19,2.53,.19,3.79Zm-19.97-16.82c.29-.31,.27-.79-.04-1.08-4.53-4.21-10.43-6.52-16.61-6.52-3.3,0-6.49,.64-9.5,1.92-2.91,1.23-5.52,2.99-7.76,5.23-2.24,2.24-4.01,4.85-5.23,7.76-1.27,3.01-1.92,6.21-1.92,9.5s.64,6.49,1.92,9.5c1.23,2.91,2.99,5.52,5.23,7.76,2.24,2.24,4.85,4.01,7.76,5.23,3.01,1.27,6.21,1.92,9.5,1.92s6.49-.64,9.5-1.92c2.91-1.23,5.52-2.99,7.76-5.23,2.24-2.24,4.01-4.85,5.23-7.76,1.27-3.01,1.92-6.21,1.92-9.5v-.08c0-.42-.34-.76-.77-.76-.2,0-.39,.08-.54,.23-.14,.14-.22,.34-.22,.54v.08c0,6.11-2.38,11.86-6.7,16.19-4.33,4.32-10.08,6.7-16.19,6.7s-11.86-2.38-16.19-6.7c-4.32-4.33-6.7-10.07-6.7-16.19s2.38-11.86,6.7-16.19c4.33-4.32,10.08-6.7,16.19-6.7,5.8,0,11.33,2.17,15.57,6.12,.3,.27,.81,.26,1.08-.04Zm2.77,3.29c.34-.25,.41-.73,.16-1.07-.24-.33-.74-.4-1.07-.16-.34,.25-.41,.73-.16,1.07,.15,.19,.37,.31,.61,.31,.16,0,.32-.05,.45-.15Zm-19.42,12c-4.21,0-7.63-3.42-7.63-7.63s3.42-7.63,7.63-7.63,7.63,3.42,7.63,7.63-3.42,7.63-7.63,7.63Zm0-1.53c3.37,0,6.1-2.74,6.1-6.1s-2.74-6.1-6.1-6.1-6.1,2.74-6.1,6.1,2.74,6.1,6.1,6.1Zm-3.86,3.55c-.14-.4-.58-.6-.98-.46l-5.53,2.01c-1.85,.67-3.52,2.73-3.79,4.67l-1.09,7.66c-.06,.42,.23,.8,.65,.86,.04,0,.07,0,.11,0,.37,0,.7-.27,.75-.66l1.09-7.66c.2-1.39,1.48-2.97,2.81-3.46l5.53-2.01c.4-.14,.6-.58,.46-.98Zm16.51,6.44l1.09,7.66c.05,.38,.38,.66,.75,.66,.04,0,.07,0,.11,0,.42-.06,.71-.45,.65-.86l-1.09-7.66c-.28-1.95-1.95-4-3.79-4.67l-5.53-2.01c-.4-.14-.83,.06-.98,.46-.14,.4,.06,.83,.46,.98l5.53,2.01c1.32,.48,2.61,2.06,2.81,3.46Zm-5.02,2.98v7.63c0,.42,.34,.76,.76,.76s.76-.34,.76-.76v-7.63c0-.42-.34-.76-.76-.76s-.76,.34-.76,.76Zm-16.79,0v7.63c0,.42,.34,.76,.76,.76s.76-.34,.76-.76v-7.63c0-.42-.34-.76-.76-.76s-.76,.34-.76,.76Zm9.16,7.48l-3.91-5.86,2.88-7.21c-.75-.38-1.26-1.14-1.26-2.04,0-1.26,1.03-2.29,2.29-2.29s2.29,1.03,2.29,2.29c0,.89-.52,1.66-1.26,2.04l2.88,7.21-3.91,5.86Zm-.45-14.51l.45-1.13,.45,1.13c.18-.14,.31-.35,.31-.6,0-.42-.34-.76-.76-.76s-.76,.34-.76,.76c0,.25,.13,.46,.31,.6Zm-1.74,8.47l2.19,3.29,2.19-3.29-2.19-5.49-2.19,5.49Z"/>
</svg>